# xmcd CD database file generated by Grip 3.1.2
# 
# Track frame offsets:
#       150
#       17295
#       28335
#       41025
#       54700
#       71807
#       89527
#       111000
#       135142
#       150652
#       162305
#       178140
#       196802
#       213390
#       228142
#       241617
# 
# Disc length: 3833 seconds
# 
# Revision: 1
# Processed by: cddbd v1.4PL0 Copyright (c) Steve Scherf et al.
# Submitted via: Grip 3.1.2
# 
DISCID=cd0ef710
DTITLE=Paulo Moura - Pixinguinha
DYEAR=1900
DGENRE=Blues
TTITLE0=Ainda me recordo
TTITLE1=Segura ele
TTITLE2=Proezas de solon
TTITLE3=Cochichando
TTITLE4=Ingenuo
TTITLE5=Lamentos
TTITLE6=Carinhoso
TTITLE7=Mistura e manda
TTITLE8=Batuque na cozinha
TTITLE9=Oito batutas
TTITLE10=Pelo telefone
TTITLE11=Rosa
TTITLE12=Naquele Tempo
TTITLE13=Vou vivendo
TTITLE14=Um a zero
TTITLE15=Urubu malandro
EXTD=
EXTT0=
EXTT1=
EXTT2=
EXTT3=
EXTT4=
EXTT5=
EXTT6=
EXTT7=
EXTT8=
EXTT9=
EXTT10=
EXTT11=
EXTT12=
EXTT13=
EXTT14=
EXTT15=
PLAYORDER=
